<svg width="24" height="25" viewBox="0 0 24 25" fill="none" xmlns="http://www.w3.org/2000/svg">
<g clip-path="url(#clip0_249_35)">
<path d="M17.3645 20.953C17.2699 20.9147 17.1673 20.8926 17.0586 20.8926C16.9499 20.8926 16.8473 20.9147 16.7527 20.953C16.6581 20.9932 16.5716 21.0496 16.5011 21.122L16.4951 21.126C16.4548 21.1663 16.4166 21.2126 16.3864 21.2629C16.3703 21.2891 16.3542 21.3172 16.3401 21.3474H15.0702V20.2445C14.875 20.3351 14.6717 20.4035 14.4644 20.4458C14.4282 20.4538 14.394 20.4599 14.3577 20.4659V21.7016C14.3577 21.8003 14.398 21.8888 14.4624 21.9532C14.5268 22.0176 14.6153 22.0579 14.714 22.0579H16.3522C16.3643 22.082 16.3784 22.1062 16.3945 22.1303C16.4226 22.1726 16.4548 22.2128 16.4911 22.2491L16.4971 22.2551C16.5696 22.3275 16.6581 22.3879 16.7567 22.4282C16.8513 22.4664 16.954 22.4886 17.0626 22.4886C17.1673 22.4886 17.2699 22.4684 17.3625 22.4302L17.3686 22.4282C17.4672 22.3879 17.5537 22.3275 17.6282 22.2551C17.7006 22.1826 17.761 22.0941 17.8013 21.9955C17.8395 21.9009 17.8616 21.7982 17.8616 21.6896C17.8616 21.5829 17.8395 21.4803 17.8013 21.3836C17.761 21.285 17.7006 21.1965 17.6282 21.124C17.5517 21.0536 17.4631 20.9932 17.3645 20.953ZM11.5582 13.4058H10.0689L9.8556 14.1062H8.51522L10.1152 9.8556H11.5522L13.1462 14.1062H11.7716L11.5582 13.4058ZM11.2805 12.484L10.8156 10.9565L10.3487 12.484H11.2805ZM13.5165 9.85358H14.8347V14.1042H13.5165V9.85358ZM12.5122 5.49635C12.2948 5.65333 12.0936 5.86465 11.9185 6.13836C11.9104 6.15245 11.8984 6.16453 11.8843 6.17258C11.8299 6.20679 11.7575 6.19069 11.7233 6.13836C11.5482 5.86465 11.3469 5.65333 11.1296 5.49635C10.8961 5.3273 10.6445 5.22063 10.3849 5.1683H10.3809C10.1273 5.11597 9.86767 5.11597 9.61811 5.16025C9.35447 5.20654 9.09887 5.30314 8.86943 5.43597C8.64201 5.5688 8.43673 5.73987 8.26566 5.93711C8.10063 6.1283 7.9678 6.34767 7.88126 6.58314C7.86717 6.61937 7.85509 6.65761 7.84302 6.69786C7.83296 6.73409 7.82088 6.77434 7.81283 6.81459C7.80277 6.86692 7.75849 6.90516 7.70214 6.90717C7.43245 6.94742 7.16478 7.04604 6.91522 7.19296C6.66164 7.3439 6.42616 7.54918 6.22289 7.79472C6.02164 8.04025 5.85258 8.33006 5.73182 8.65208C5.61912 8.95396 5.55069 9.28604 5.5366 9.63824C5.53459 9.68453 5.53459 9.7288 5.53459 9.77509C5.53459 9.81736 5.5366 9.86163 5.5366 9.90792C5.53862 9.94616 5.52252 9.98642 5.4883 10.0106C5.32327 10.1293 5.17434 10.2521 5.04151 10.3789C4.90667 10.5097 4.78792 10.6445 4.68528 10.7834C4.51824 11.0108 4.39547 11.2483 4.31296 11.4878C4.22642 11.7374 4.18415 11.993 4.18013 12.2445C4.17811 12.486 4.21031 12.7255 4.27874 12.957C4.34717 13.1925 4.45182 13.4219 4.58667 13.6352C4.66314 13.758 4.74969 13.8787 4.84428 13.9914C4.94088 14.1062 5.04553 14.2148 5.15824 14.3175C5.18641 14.3436 5.20252 14.3859 5.19447 14.4262C5.16226 14.5791 5.14616 14.7301 5.14013 14.879C5.1361 15.0319 5.14415 15.1829 5.16428 15.3298C5.20252 15.5995 5.28101 15.8571 5.3917 16.0946C5.50843 16.3482 5.66138 16.5796 5.83849 16.7829C6.00956 16.9821 6.20478 17.1552 6.41409 17.2981C6.62541 17.443 6.8488 17.5557 7.07824 17.6342C7.18088 17.6684 7.28553 17.6966 7.3922 17.7167C7.49283 17.7369 7.59346 17.7489 7.69208 17.753C7.74642 17.7509 7.79673 17.7892 7.8088 17.8455C7.86113 18.085 7.95774 18.3104 8.09057 18.5137C8.22943 18.727 8.40453 18.9162 8.60579 19.0732C8.85937 19.2704 9.15723 19.4194 9.47119 19.4979C9.76704 19.5723 10.079 19.5864 10.3849 19.522C10.6586 19.4657 10.9243 19.3489 11.1698 19.1638C11.3952 18.9927 11.6045 18.7633 11.7796 18.4654C11.7897 18.4473 11.8058 18.4332 11.8259 18.4231C11.8823 18.393 11.9527 18.4151 11.9829 18.4714C12.1278 18.7411 12.3049 18.9565 12.5021 19.1195C12.7155 19.2946 12.9509 19.4133 13.1985 19.4818C13.5145 19.5683 13.8445 19.5683 14.1645 19.5019C14.5067 19.4314 14.8367 19.2825 15.1205 19.0772C15.3439 18.9182 15.5411 18.723 15.6981 18.5016C15.847 18.2943 15.9577 18.0629 16.0221 17.8194C16.0302 17.7731 16.0664 17.7328 16.1167 17.7248C16.4126 17.6725 16.7044 17.5497 16.9721 17.3665C17.2397 17.1834 17.4833 16.9419 17.6825 16.6541C17.8657 16.3884 18.0126 16.0825 18.1072 15.7484C18.1957 15.4365 18.238 15.0984 18.2239 14.7421C18.2199 14.7019 18.238 14.6616 18.2742 14.6375C18.4473 14.5187 18.6003 14.394 18.7371 14.2672C18.876 14.1343 18.9987 13.9975 19.1034 13.8546C19.2644 13.6372 19.3831 13.4118 19.4657 13.1804C19.5502 12.9409 19.5945 12.6974 19.6025 12.4538C19.6086 12.2184 19.5804 11.9849 19.52 11.7555C19.4596 11.524 19.365 11.3006 19.2423 11.0893L19.2382 11.0853C19.1577 10.9464 19.0631 10.8136 18.9585 10.6848C18.8538 10.556 18.7351 10.4352 18.6083 10.3205C18.5781 10.2943 18.562 10.2521 18.5701 10.2098C18.5982 10.0709 18.6164 9.93207 18.6224 9.79522C18.6284 9.65635 18.6244 9.5195 18.6103 9.38465C18.5801 9.10491 18.5057 8.83924 18.397 8.5917C18.2823 8.33006 18.1293 8.08855 17.9502 7.87723C17.7771 7.67195 17.5779 7.49283 17.3645 7.3439C17.1512 7.19497 16.9238 7.07824 16.6923 6.99975L16.6863 6.99774C16.5635 6.95547 16.4387 6.92528 16.316 6.90516H16.3119C16.1912 6.88503 16.0704 6.87698 15.9517 6.87899C15.8974 6.88302 15.845 6.84679 15.8309 6.79044C15.8108 6.70792 15.7847 6.62742 15.7545 6.54893C15.7223 6.46843 15.686 6.38994 15.6438 6.31145C15.5351 6.11019 15.3922 5.92503 15.2252 5.76604C15.0541 5.60302 14.8589 5.46415 14.6496 5.35748C14.4342 5.24881 14.1987 5.17233 13.9572 5.13811C13.7278 5.10591 13.4923 5.10994 13.2609 5.15824C13.0013 5.22063 12.7457 5.3273 12.5122 5.49635ZM15.8028 7.76252C15.8169 7.71824 15.8571 7.68402 15.9074 7.68C15.9919 7.67396 16.0785 7.67799 16.165 7.69208C16.2536 7.70616 16.3421 7.7283 16.4307 7.75849C16.5977 7.81484 16.7648 7.90138 16.9197 8.01006C17.0727 8.11673 17.2176 8.24755 17.3424 8.39648L17.3444 8.4005C17.4752 8.55547 17.5859 8.72855 17.6684 8.91774C17.7469 9.09484 17.7992 9.28402 17.8214 9.48327C17.8355 9.6161 17.8355 9.75497 17.8194 9.89585C17.8053 10.0267 17.7751 10.1615 17.7288 10.2964L17.7268 10.3044C17.6986 10.3889 17.7006 10.4775 17.7268 10.556C17.755 10.6365 17.8073 10.7089 17.8818 10.7572L17.8878 10.7613C18.0287 10.8659 18.1535 10.9806 18.2621 11.1014C18.3748 11.2242 18.4714 11.357 18.5519 11.4938C18.6405 11.6448 18.7089 11.8018 18.7512 11.9628C18.7955 12.1218 18.8156 12.2828 18.8096 12.4418C18.8055 12.6068 18.7733 12.7718 18.715 12.9348C18.6586 13.0898 18.5761 13.2428 18.4674 13.3917L18.4654 13.3937C18.3668 13.5286 18.242 13.6614 18.0951 13.7882C17.9542 13.9089 17.7912 14.0236 17.604 14.1343L17.598 14.1384C17.5235 14.1806 17.4692 14.245 17.437 14.3195C17.4048 14.394 17.3947 14.4765 17.4108 14.557L17.4128 14.5731C17.4511 14.881 17.433 15.1748 17.3706 15.4425C17.3021 15.7343 17.1834 15.996 17.0284 16.2194C16.9097 16.3904 16.7728 16.5374 16.6259 16.6541C16.475 16.7748 16.3119 16.8634 16.1449 16.9177H16.1429C16.0825 16.9358 16.0161 16.9016 15.998 16.8413C15.7706 16.0986 15.3781 15.8591 14.714 15.517L14.6999 15.5089C14.6073 15.4647 14.5067 15.4606 14.4161 15.4888C14.3255 15.517 14.247 15.5794 14.2008 15.6699L14.1947 15.682C14.1504 15.7746 14.1464 15.8752 14.1746 15.9658C14.2048 16.0564 14.2692 16.1369 14.3618 16.1852C14.9172 16.4689 15.3278 16.6843 15.3218 17.3806C15.3197 17.5879 15.2553 17.7892 15.1467 17.9703C15.0319 18.1615 14.8669 18.3326 14.6757 18.4714C14.4805 18.6123 14.2611 18.715 14.0357 18.7653C13.8204 18.8156 13.599 18.8176 13.3917 18.7613C13.0415 18.6647 12.8141 18.4312 12.6611 18.1474C12.5162 17.8777 12.4357 17.5638 12.3774 17.278C12.3733 17.2679 12.3733 17.2558 12.3733 17.2458C12.3733 17.1009 12.2606 17.0063 12.1137 16.964C12.0493 16.9439 11.9789 16.9358 11.9104 16.9358C11.84 16.9358 11.7716 16.9459 11.7072 16.964C11.5623 17.0083 11.4496 17.1029 11.4496 17.2458C11.4496 17.2558 11.4475 17.2639 11.4455 17.274C11.3328 17.7208 11.1698 18.0569 10.9786 18.2984C10.7552 18.5821 10.4936 18.7371 10.2239 18.7935C10.0267 18.8337 9.8234 18.8236 9.63019 18.7733C9.42692 18.719 9.23371 18.6204 9.06465 18.4916C8.89761 18.3608 8.75874 18.2018 8.66214 18.0226C8.56956 17.8516 8.51522 17.6624 8.51522 17.4692C8.51522 16.7366 8.95799 16.4911 9.54365 16.1912C9.63623 16.1429 9.70063 16.0624 9.73082 15.9718C9.76101 15.8792 9.75497 15.7766 9.70868 15.682C9.66038 15.5894 9.57987 15.525 9.48931 15.4948C9.39874 15.4667 9.29811 15.4707 9.20553 15.515L9.1995 15.517C8.50918 15.8692 8.0966 16.1268 7.84906 16.8936C7.83497 16.9439 7.78667 16.9821 7.73233 16.9801C7.6639 16.9781 7.59547 16.9701 7.52503 16.956C7.4566 16.9419 7.38818 16.9238 7.32377 16.8996C7.16075 16.8433 6.99774 16.7608 6.84478 16.6561C6.69384 16.5514 6.55296 16.4267 6.42818 16.2818C6.29937 16.1328 6.18868 15.9658 6.10415 15.7826C6.02365 15.6116 5.9673 15.4284 5.93912 15.2372V15.2332C5.91899 15.0923 5.91497 14.9454 5.93107 14.7945C5.94516 14.6536 5.97535 14.5067 6.02566 14.3618L6.02767 14.3557C6.05585 14.2732 6.05384 14.1867 6.02969 14.1102L6.02767 14.1062C6.00151 14.0257 5.94918 13.9552 5.87673 13.9049L5.8727 13.9009C5.7439 13.8043 5.62717 13.7016 5.52453 13.5889C5.41987 13.4762 5.3273 13.3555 5.25082 13.2307C5.15824 13.0797 5.08579 12.9187 5.03748 12.7537C4.99119 12.5927 4.96704 12.4277 4.96906 12.2586C4.97107 12.0875 5.00126 11.9125 5.06163 11.7414C5.12 11.5784 5.20453 11.4153 5.32126 11.2564C5.41987 11.1215 5.54063 10.9887 5.68553 10.8619C5.8244 10.7391 5.98138 10.6224 6.16252 10.5117C6.22893 10.4714 6.27723 10.4151 6.30943 10.3507L6.31145 10.3447C6.34365 10.2782 6.35572 10.2038 6.34566 10.1293C6.34365 10.1213 6.34365 10.1132 6.34365 10.1052V10.1011C6.33358 10.0307 6.32755 9.96025 6.32352 9.89182C6.3195 9.81736 6.3195 9.74289 6.32151 9.67044C6.33157 9.40679 6.38189 9.15925 6.4644 8.93585C6.55296 8.69635 6.67774 8.48101 6.82667 8.29786C6.94943 8.14692 7.09031 8.02013 7.23723 7.92151C7.38415 7.82289 7.53912 7.75245 7.69811 7.7122C7.75849 7.69409 7.82491 7.7283 7.84302 7.78868C7.9678 8.18314 8.12478 8.43069 8.42465 8.71044L8.43673 8.7205C8.51119 8.78893 8.6078 8.82113 8.70239 8.81711C8.79698 8.81308 8.88956 8.77484 8.95799 8.70038L8.96403 8.69233C9.03245 8.61786 9.06465 8.52126 9.06063 8.42667C9.0566 8.33207 9.01635 8.23748 8.93987 8.16503C8.69836 7.94163 8.64402 7.80277 8.57157 7.57736C8.48704 7.31774 8.50113 7.06415 8.58365 6.83874C8.64 6.68377 8.72855 6.53887 8.84126 6.41208C8.95195 6.28528 9.08679 6.17258 9.23572 6.08604L9.24176 6.08201C9.39472 5.99346 9.55975 5.92906 9.73082 5.89685C9.89384 5.86667 10.0609 5.86465 10.2239 5.89887C10.4533 5.94717 10.6787 6.06792 10.878 6.27723C11.0531 6.46038 11.208 6.71396 11.3308 7.04805L11.3328 7.05208C11.3751 7.18289 11.5119 7.25937 11.673 7.28956C11.7454 7.30365 11.8219 7.30767 11.8964 7.30365H11.8984C11.9748 7.29962 12.0473 7.28553 12.1157 7.2634C12.2365 7.22314 12.3311 7.15874 12.3532 7.07623V7.02994C12.3532 6.79648 12.4921 6.54893 12.6833 6.34566C12.8926 6.12428 13.1723 5.94918 13.4078 5.90088C13.5567 5.87069 13.7077 5.86868 13.8546 5.89082C14.0075 5.91497 14.1565 5.96327 14.2974 6.03371L14.3094 6.03774C14.4523 6.11019 14.5831 6.20277 14.6979 6.31145C14.8106 6.42013 14.9072 6.54289 14.9796 6.67774C15.0943 6.88906 15.1467 7.13057 15.1104 7.38616C15.0782 7.60956 15.0702 7.75044 14.883 7.97384L14.881 7.97585C14.8146 8.05434 14.7864 8.15296 14.7945 8.24956C14.8025 8.34214 14.8448 8.4327 14.9192 8.49711L14.9313 8.50717C15.0098 8.57157 15.1064 8.59774 15.201 8.58969C15.2936 8.58163 15.3842 8.53937 15.4486 8.46491L15.4586 8.45082C15.6518 8.22138 15.7142 8.05233 15.8028 7.76252ZM20.2224 17.6121C20.1842 17.5175 20.162 17.4148 20.162 17.3062C20.162 17.1975 20.1842 17.0948 20.2224 17.0003C20.2626 16.9057 20.319 16.8191 20.3914 16.7487L20.3955 16.7426C20.4357 16.7024 20.482 16.6642 20.5323 16.634C20.5585 16.6179 20.5867 16.6018 20.6169 16.5877V15.3177H19.0551C19.0571 15.2352 19.0571 15.1527 19.0531 15.0682C19.0491 15.0219 19.0692 14.9756 19.1094 14.9494C19.2704 14.8387 19.4174 14.724 19.5502 14.6053H20.9711C21.0697 14.6053 21.1582 14.6455 21.2226 14.7099C21.287 14.7743 21.3273 14.8629 21.3273 14.9615V16.5997C21.3514 16.6118 21.3756 16.6259 21.3997 16.642C21.442 16.6702 21.4823 16.7024 21.5185 16.7386L21.5245 16.7447C21.597 16.8171 21.6574 16.9057 21.6976 17.0043C21.7358 17.0989 21.758 17.2015 21.758 17.3102C21.758 17.4148 21.7379 17.5155 21.6996 17.6101L21.6976 17.6161C21.6574 17.7147 21.597 17.8013 21.5245 17.8757C21.4521 17.9482 21.3635 18.0086 21.2649 18.0488C21.1703 18.087 21.0677 18.1092 20.959 18.1092C20.8523 18.1092 20.7497 18.087 20.6531 18.0488C20.5545 18.0086 20.4659 17.9482 20.3935 17.8757C20.323 17.7992 20.2626 17.7107 20.2224 17.6121ZM22.4845 13.5366H20.3613C20.3975 13.4581 20.4297 13.3796 20.4579 13.2991C20.5142 13.1421 20.5545 12.9831 20.5786 12.8242H22.4845C22.4986 12.798 22.5127 12.7718 22.5288 12.7457C22.559 12.6974 22.5952 12.6531 22.6335 12.6148C22.7079 12.5404 22.7945 12.482 22.8931 12.4418C22.9877 12.4035 23.0903 12.3814 23.199 12.3814C23.3036 12.3814 23.4043 12.4015 23.4989 12.4397L23.5049 12.4418C23.6035 12.482 23.6901 12.5424 23.7645 12.6148C23.837 12.6873 23.8974 12.7758 23.9376 12.8745C23.9758 12.9691 23.998 13.0717 23.998 13.1804C23.998 13.287 23.9758 13.3897 23.9376 13.4863C23.8974 13.5849 23.837 13.6735 23.7645 13.7459C23.6921 13.8184 23.6035 13.8787 23.5049 13.919C23.4103 13.9572 23.3077 13.9794 23.199 13.9794C23.0943 13.9794 22.9937 13.9592 22.8991 13.921L22.8931 13.919C22.7945 13.8787 22.7079 13.8184 22.6335 13.7459C22.5952 13.7077 22.561 13.6654 22.5308 13.6191L22.5268 13.6131C22.5127 13.5889 22.4986 13.5628 22.4845 13.5366ZM23.1608 11.5884H20.4901C20.4216 11.363 20.325 11.1436 20.2043 10.9343L20.2003 10.9283C20.1902 10.9102 20.1801 10.8941 20.1701 10.876H22.8065V8.55145C22.7864 8.53937 22.7663 8.5273 22.7462 8.51321C22.7059 8.48503 22.6697 8.45484 22.6355 8.42063C22.563 8.34818 22.5026 8.25962 22.4624 8.16101C22.4242 8.06641 22.402 7.96377 22.402 7.85509C22.402 7.74843 22.4242 7.64377 22.4624 7.54918C22.5026 7.45057 22.563 7.36403 22.6355 7.28956C22.7079 7.21711 22.7965 7.15673 22.8951 7.11648C22.9897 7.07824 23.0923 7.0561 23.201 7.0561C23.3077 7.0561 23.4103 7.07824 23.5069 7.11648C23.6055 7.15673 23.6941 7.21711 23.7665 7.28956C23.839 7.36201 23.8994 7.45057 23.9396 7.54918C23.9779 7.64377 24 7.74641 24 7.85509C24 7.95975 23.9799 8.06038 23.9416 8.15497L23.9396 8.16101C23.8994 8.25962 23.839 8.34616 23.7665 8.42063C23.7223 8.46491 23.6699 8.50516 23.6156 8.53937C23.5854 8.55748 23.5512 8.5756 23.519 8.58969V11.2302C23.519 11.3288 23.4787 11.4174 23.4143 11.4818C23.3479 11.5482 23.2594 11.5884 23.1608 11.5884ZM20.3693 9.86969H19.4596C19.4838 9.73686 19.4979 9.60403 19.5039 9.47119C19.5079 9.36453 19.5079 9.25987 19.5019 9.15723H20.0131V8.10667C19.9849 8.09258 19.9587 8.07849 19.9326 8.06038C19.8843 8.03019 19.84 7.99396 19.7977 7.9517C19.7253 7.87924 19.6649 7.79069 19.6247 7.69208C19.5864 7.59748 19.5643 7.49484 19.5643 7.38818C19.5643 7.28151 19.5864 7.17887 19.6247 7.08226C19.6649 6.98767 19.7213 6.90113 19.7917 6.82868L19.7977 6.82264C19.8702 6.75019 19.9587 6.68981 20.0574 6.64956C20.1519 6.61132 20.2546 6.58918 20.3633 6.58918C20.4719 6.58918 20.5746 6.61132 20.6692 6.64956C20.7638 6.68981 20.8503 6.74616 20.9228 6.81862L20.9288 6.82264C21.0013 6.89509 21.0596 6.97962 21.0999 7.07623L21.1019 7.08226C21.1401 7.17685 21.1623 7.2795 21.1623 7.38818C21.1623 7.49484 21.1401 7.5995 21.1019 7.69409C21.0616 7.78868 21.0053 7.87522 20.9348 7.94767L20.9288 7.95371C20.8906 7.99195 20.8483 8.02616 20.8 8.05836C20.7758 8.07447 20.7517 8.08855 20.7255 8.10063V9.51346C20.7255 9.61208 20.6853 9.70063 20.6209 9.76503C20.5565 9.82943 20.4659 9.86969 20.3693 9.86969ZM6.26516 3.77761C6.35975 3.81585 6.46239 3.83799 6.57107 3.83799C6.67975 3.83799 6.78239 3.81585 6.87698 3.77761C6.97157 3.73736 7.05811 3.68101 7.12855 3.60855L7.13459 3.60453C7.17484 3.56428 7.21308 3.51799 7.24327 3.46767C7.25937 3.44151 7.27547 3.41333 7.28956 3.38314H8.5595V4.48C8.78289 4.36126 9.0244 4.27472 9.27195 4.2244V3.02692C9.27195 2.9283 9.2317 2.83975 9.1673 2.77535C9.10289 2.71094 9.01434 2.67069 8.91572 2.67069H7.27748C7.26541 2.64654 7.25132 2.62239 7.23522 2.59824C7.20704 2.55597 7.17484 2.51572 7.13862 2.4795L7.13258 2.47346C7.06013 2.40101 6.97157 2.34063 6.87296 2.30038C6.77836 2.26214 6.67572 2.24 6.56704 2.24C6.46239 2.24 6.35975 2.26013 6.26717 2.29836L6.26113 2.30038C6.16252 2.34063 6.07597 2.40101 6.00151 2.47346C5.92906 2.54591 5.86868 2.63447 5.82843 2.73308C5.79019 2.82767 5.76805 2.93031 5.76805 3.03899C5.76805 3.14566 5.79019 3.2483 5.82843 3.34491C5.86868 3.44352 5.92906 3.53208 6.00151 3.60453C6.08 3.67698 6.16654 3.73736 6.26516 3.77761ZM10.3426 1.51547V4.26465C10.5801 4.33308 10.8116 4.44176 11.0289 4.59874L11.0531 4.61686C11.0531 4.61082 11.0551 4.60478 11.0551 4.59874V1.51547C11.0813 1.50138 11.1074 1.4873 11.1336 1.47119C11.1819 1.44101 11.2262 1.40478 11.2644 1.36654C11.3369 1.29208 11.3972 1.20553 11.4375 1.10692C11.4757 1.01233 11.4979 0.909686 11.4979 0.801006C11.4979 0.696352 11.4777 0.595723 11.4395 0.501132L11.4375 0.495094C11.3972 0.396478 11.3369 0.309937 11.2644 0.235472C11.1919 0.163019 11.1034 0.102642 11.0048 0.0623899C10.9102 0.0241509 10.8075 0.00201258 10.6989 0.00201258C10.5922 0.00201258 10.4896 0.0241509 10.393 0.0623899C10.2943 0.102642 10.2058 0.163019 10.1333 0.235472C10.0609 0.307925 10.0005 0.396478 9.96025 0.495094C9.92201 0.589686 9.89987 0.692327 9.89987 0.801006C9.89987 0.90566 9.92 1.00629 9.95824 1.10088L9.96025 1.10692C10.0005 1.20553 10.0609 1.29208 10.1333 1.36654C10.1716 1.40478 10.2138 1.43899 10.2601 1.46918L10.2642 1.47119C10.2903 1.4873 10.3145 1.50138 10.3426 1.51547ZM12.2888 0.839245V4.86038C12.3854 4.76176 12.488 4.67522 12.5927 4.59874C12.7235 4.50415 12.8604 4.42566 13.0013 4.36528V1.19346H15.3258C15.3379 1.21358 15.3499 1.23371 15.364 1.25384C15.3922 1.29409 15.4224 1.33031 15.4566 1.36453C15.5291 1.43698 15.6176 1.49736 15.7162 1.53761C15.8108 1.57585 15.9135 1.59799 16.0221 1.59799C16.1288 1.59799 16.2335 1.57585 16.328 1.53761C16.4267 1.49736 16.5152 1.43698 16.5877 1.36453C16.6601 1.29208 16.7205 1.20352 16.7608 1.10491C16.799 1.01031 16.8211 0.907673 16.8211 0.798994C16.8211 0.692327 16.799 0.589686 16.7608 0.493082C16.7205 0.394465 16.6601 0.305912 16.5877 0.233459C16.5112 0.161006 16.4226 0.100629 16.324 0.0603774C16.2294 0.0221384 16.1268 0 16.0201 0C15.9155 0 15.8148 0.0201258 15.7203 0.0583648L15.7142 0.0603774C15.6156 0.100629 15.5291 0.161006 15.4546 0.233459C15.4103 0.277736 15.3701 0.330063 15.3358 0.384402C15.3177 0.414591 15.2996 0.448805 15.2855 0.481006H12.645C12.5464 0.481006 12.4579 0.521258 12.3935 0.58566C12.3291 0.652075 12.2888 0.740629 12.2888 0.839245ZM14.0075 3.63069V4.18214C14.08 4.18616 14.1545 4.1922 14.2269 4.20428C14.396 4.22843 14.561 4.27069 14.72 4.32906V3.98893H15.7706C15.7847 4.01711 15.7987 4.04327 15.8169 4.06943C15.847 4.11774 15.8833 4.16201 15.9255 4.20428C15.998 4.27673 16.0865 4.33711 16.1852 4.37736C16.2797 4.4156 16.3824 4.43774 16.4891 4.43774C16.5957 4.43774 16.6984 4.4156 16.795 4.37736C16.8896 4.33711 16.9761 4.28075 17.0486 4.21031L17.0546 4.20428C17.127 4.13182 17.1874 4.04327 17.2277 3.94465C17.2659 3.85006 17.2881 3.74742 17.2881 3.63874C17.2881 3.53006 17.2659 3.42742 17.2277 3.33283C17.1874 3.23824 17.1311 3.1517 17.0586 3.07925L17.0546 3.07321C16.9821 3.00075 16.8976 2.94239 16.801 2.90214L16.795 2.90013C16.7004 2.86189 16.5977 2.83975 16.4891 2.83975C16.3824 2.83975 16.2777 2.86189 16.1831 2.90013C16.0886 2.94038 16.002 2.99673 15.9296 3.06717L15.9235 3.07321C15.8853 3.11145 15.8511 3.15371 15.8189 3.20201C15.8028 3.22616 15.7887 3.25031 15.7766 3.27648H14.3638C14.2652 3.27648 14.1766 3.31673 14.1122 3.38113C14.0478 3.44352 14.0075 3.53208 14.0075 3.63069ZM3.77761 7.08428C3.81585 7.17887 3.83799 7.28151 3.83799 7.39019C3.83799 7.49887 3.81585 7.60151 3.77761 7.6961C3.73736 7.79069 3.68101 7.87723 3.60855 7.94767L3.60453 7.95371C3.56428 7.99396 3.51799 8.0322 3.46767 8.06239C3.44151 8.07849 3.41333 8.09459 3.38314 8.10868V9.37862H4.70138V9.44101C4.70138 9.48931 4.7034 9.53962 4.70541 9.59195C4.70943 9.63623 4.68931 9.6805 4.65107 9.70868C4.47799 9.83145 4.32302 9.96025 4.18214 10.0911H3.03094C2.93233 10.0911 2.84377 10.0508 2.77937 9.98641C2.71497 9.92201 2.67472 9.83346 2.67472 9.73484V8.0966C2.65057 8.08453 2.62642 8.07044 2.60226 8.05434C2.56 8.02616 2.51975 7.99396 2.48352 7.95774L2.47748 7.9517C2.40503 7.87924 2.34465 7.79069 2.3044 7.69208C2.26616 7.59748 2.24403 7.49484 2.24403 7.38616C2.24403 7.28151 2.26415 7.18088 2.30239 7.08629L2.3044 7.08025C2.34465 6.98164 2.40503 6.89509 2.47748 6.82063C2.54994 6.74818 2.63849 6.6878 2.73711 6.64755C2.8317 6.60931 2.93434 6.58717 3.04302 6.58717C3.14969 6.58717 3.25233 6.60931 3.34893 6.64755C3.44755 6.6878 3.5361 6.74818 3.60855 6.82063C3.67698 6.89711 3.73736 6.98566 3.77761 7.08428ZM1.51547 11.1597H3.4073C3.37509 11.2322 3.34692 11.3067 3.32075 11.3791C3.2644 11.5421 3.22415 11.7052 3.2 11.8702H1.51547C1.50138 11.8964 1.4873 11.9225 1.47119 11.9487C1.44101 11.997 1.40478 12.0413 1.36654 12.0795C1.29208 12.154 1.20553 12.2123 1.10692 12.2526C1.01233 12.2908 0.909686 12.313 0.801006 12.313C0.696352 12.313 0.595723 12.2928 0.501132 12.2546L0.495094 12.2526C0.396478 12.2123 0.309937 12.1519 0.235472 12.0795C0.163019 12.007 0.102642 11.9185 0.0623899 11.8199C0.0241509 11.7253 0.00201258 11.6226 0.00201258 11.514C0.00201258 11.4073 0.0241509 11.3047 0.0623899 11.208C0.102642 11.1094 0.163019 11.0209 0.235472 10.9484C0.307925 10.876 0.396478 10.8156 0.495094 10.7753C0.589686 10.7371 0.692327 10.715 0.801006 10.715C0.90566 10.715 1.00629 10.7351 1.10088 10.7733L1.10692 10.7753C1.20553 10.8156 1.29208 10.876 1.36654 10.9484C1.40478 10.9867 1.43899 11.0289 1.46918 11.0752L1.47321 11.0813C1.4873 11.1074 1.50138 11.1336 1.51547 11.1597ZM0.839245 13.1079H3.30063C3.37711 13.3514 3.4878 13.5869 3.62868 13.8103V13.8123L3.6327 13.8204H1.19346V16.1449C1.21358 16.157 1.23371 16.1691 1.25384 16.1831C1.29409 16.2113 1.33031 16.2415 1.36453 16.2757C1.43698 16.3482 1.49736 16.4367 1.53761 16.5353C1.57585 16.6299 1.59799 16.7326 1.59799 16.8413C1.59799 16.9479 1.57585 17.0526 1.53761 17.1472C1.49736 17.2458 1.43698 17.3323 1.36453 17.4068C1.29208 17.4792 1.20352 17.5396 1.10491 17.5799C1.01031 17.6181 0.907673 17.6403 0.798994 17.6403C0.692327 17.6403 0.589686 17.6181 0.493082 17.5799C0.394465 17.5396 0.305912 17.4792 0.233459 17.4068C0.161006 17.3283 0.100629 17.2397 0.0603774 17.1431C0.0221384 17.0486 0 16.9459 0 16.8372C0 16.7326 0.0201258 16.6319 0.0583648 16.5374L0.0603774 16.5313C0.100629 16.4327 0.161006 16.3462 0.233459 16.2717C0.277736 16.2274 0.330063 16.1872 0.384402 16.153C0.414591 16.1348 0.448805 16.1167 0.481006 16.1026V13.4621C0.481006 13.3635 0.521258 13.275 0.58566 13.2106C0.652075 13.1482 0.740629 13.1079 0.839245 13.1079ZM3.63069 14.8267H4.29484C4.2727 14.9595 4.26063 15.0903 4.2566 15.2191C4.25258 15.3278 4.25459 15.4345 4.26264 15.5391H3.98692V16.5897C4.01509 16.6038 4.04126 16.6179 4.06742 16.636C4.11572 16.6662 4.16 16.7024 4.20226 16.7447C4.27472 16.8171 4.33509 16.9057 4.37535 17.0043C4.41358 17.0989 4.43572 17.2015 4.43572 17.3102C4.43572 17.4189 4.41358 17.5195 4.37535 17.6161C4.33509 17.7107 4.27874 17.7972 4.2083 17.8697L4.20226 17.8757C4.12981 17.9482 4.04126 18.0086 3.94264 18.0488C3.84805 18.087 3.74541 18.1092 3.63673 18.1092C3.52805 18.1092 3.42541 18.087 3.33082 18.0488C3.23623 18.0086 3.14969 17.9522 3.07723 17.8797L3.07119 17.8757C2.99874 17.8033 2.94038 17.7187 2.90013 17.6221L2.89811 17.6161C2.85987 17.5215 2.83774 17.4189 2.83774 17.3102C2.83774 17.2035 2.85987 17.0989 2.89811 17.0043C2.93836 16.9097 2.99472 16.8231 3.06516 16.7507L3.07119 16.7447C3.10943 16.7064 3.1517 16.6722 3.2 16.64C3.22415 16.6239 3.2483 16.6098 3.27447 16.5977V15.1849C3.27447 15.0863 3.31472 14.9977 3.37912 14.9333C3.44352 14.8649 3.53208 14.8267 3.63069 14.8267ZM13.2891 23.2151V20.3995C13.0375 20.321 12.8 20.1942 12.5826 20.0151L12.5786 20.0111V23.2171C12.5525 23.2312 12.5263 23.2453 12.5001 23.2614C12.4518 23.2916 12.4075 23.3278 12.3693 23.366C12.2969 23.4405 12.2365 23.527 12.1962 23.6257C12.158 23.7203 12.1358 23.8229 12.1358 23.9316C12.1358 24.0362 12.156 24.1369 12.1942 24.2314L12.1962 24.2375C12.2365 24.3361 12.2969 24.4226 12.3693 24.4971C12.4418 24.5696 12.5303 24.6299 12.6289 24.6702C12.7235 24.7084 12.8262 24.7306 12.9348 24.7306C13.0415 24.7306 13.1442 24.7084 13.2408 24.6702C13.3394 24.6299 13.4279 24.5696 13.5004 24.4971C13.5728 24.4247 13.6332 24.3361 13.6735 24.2375C13.7117 24.1429 13.7338 24.0403 13.7338 23.9316C13.7338 23.8269 13.7137 23.7263 13.6755 23.6317L13.6735 23.6257C13.6332 23.527 13.5728 23.4405 13.5004 23.366C13.4621 23.3278 13.4199 23.2936 13.3736 23.2634L13.3675 23.2594C13.3414 23.2433 13.3152 23.2292 13.2891 23.2151ZM11.3409 23.8913V19.834C11.2564 19.9205 11.1678 19.997 11.0752 20.0674C10.9323 20.1761 10.7834 20.2626 10.6284 20.3311V23.5391H8.3039C8.29182 23.519 8.27975 23.4989 8.26566 23.4787C8.23748 23.4385 8.2073 23.4023 8.17308 23.368C8.10063 23.2956 8.01208 23.2352 7.91346 23.195C7.81887 23.1567 7.71623 23.1346 7.60755 23.1346C7.50088 23.1346 7.39623 23.1567 7.30163 23.195C7.20302 23.2352 7.11648 23.2956 7.04201 23.368C6.96956 23.4405 6.90918 23.5291 6.86893 23.6277C6.83069 23.7223 6.80855 23.8249 6.80855 23.9336C6.80855 24.0403 6.83069 24.1429 6.86893 24.2395C6.90918 24.3381 6.96956 24.4267 7.04201 24.4991C7.11447 24.5716 7.20302 24.6319 7.30163 24.6722C7.39623 24.7104 7.49887 24.7326 7.60755 24.7326C7.7122 24.7326 7.81283 24.7125 7.90742 24.6742L7.91346 24.6722C8.01208 24.6319 8.09862 24.5716 8.17308 24.4991C8.21736 24.4548 8.25761 24.4025 8.29182 24.3482C8.30994 24.318 8.32805 24.2838 8.34214 24.2516H10.9826C11.0813 24.2516 11.1698 24.2113 11.2342 24.1469C11.3006 24.0785 11.3409 23.9899 11.3409 23.8913ZM9.62214 21.0999V20.5142C9.46516 20.5062 9.30818 20.482 9.15522 20.4438C9.0727 20.4236 8.99019 20.3975 8.90969 20.3693V20.7457H7.85912C7.84503 20.7175 7.83094 20.6913 7.81283 20.6652C7.78264 20.6169 7.74641 20.5726 7.70415 20.5303C7.6317 20.4579 7.54314 20.3975 7.44453 20.3572C7.34994 20.319 7.2473 20.2969 7.14063 20.2969C7.03396 20.2969 6.93132 20.319 6.83472 20.3572C6.74013 20.3975 6.65358 20.4538 6.58113 20.5243L6.57509 20.5283C6.50264 20.6008 6.44226 20.6893 6.40201 20.7879C6.36377 20.8825 6.34164 20.9852 6.34164 21.0938C6.34164 21.2025 6.36377 21.3052 6.40201 21.3997C6.44226 21.4943 6.49862 21.5809 6.57107 21.6533L6.57509 21.6594C6.64755 21.7318 6.73208 21.7902 6.82868 21.8304L6.83472 21.8325C6.92931 21.8707 7.03195 21.8928 7.14063 21.8928C7.2473 21.8928 7.34994 21.8707 7.44654 21.8325C7.54113 21.7922 7.62767 21.7358 7.70013 21.6654L7.70616 21.6594C7.7444 21.6211 7.77862 21.5789 7.81082 21.5306C7.82692 21.5064 7.84101 21.4823 7.85308 21.4561H9.26591C9.36453 21.4561 9.45308 21.4158 9.51748 21.3514C9.58189 21.287 9.62214 21.1985 9.62214 21.0999Z" fill="#C9C9C9"/>
</g>
<defs>
<clipPath id="clip0_249_35">
<rect width="24" height="24.7306" fill="white"/>
</clipPath>
</defs>
</svg>
