<svg width="48" height="48" viewBox="0 0 48 48" fill="none" xmlns="http://www.w3.org/2000/svg">
<g clip-path="url(#clip0_249_43)">
<path d="M34.7291 40.668C34.5399 40.5938 34.3346 40.5508 34.1172 40.5508C33.8999 40.5508 33.6946 40.5938 33.5054 40.668C33.3162 40.7461 33.1431 40.8555 33.0023 40.9961L32.9902 41.0039C32.9097 41.082 32.8332 41.1719 32.7728 41.2695C32.7406 41.3203 32.7084 41.375 32.6803 41.4336H30.1404V39.293C29.7499 39.4687 29.3434 39.6016 28.9288 39.6836C28.8564 39.6992 28.7879 39.7109 28.7155 39.7227V42.1211C28.7155 42.3125 28.796 42.4844 28.9248 42.6094C29.0536 42.7344 29.2307 42.8125 29.4279 42.8125H32.7044C32.7286 42.8594 32.7567 42.9062 32.7889 42.9531C32.8453 43.0352 32.9097 43.1133 32.9821 43.1836L32.9942 43.1953C33.1391 43.3359 33.3162 43.4531 33.5135 43.5313C33.7026 43.6055 33.9079 43.6484 34.1253 43.6484C34.3346 43.6484 34.5399 43.6094 34.725 43.5352L34.7371 43.5313C34.9343 43.4531 35.1074 43.3359 35.2563 43.1953C35.4013 43.0547 35.522 42.8828 35.6025 42.6914C35.679 42.5078 35.7233 42.3086 35.7233 42.0977C35.7233 41.8906 35.679 41.6914 35.6025 41.5039C35.522 41.3125 35.4013 41.1406 35.2563 41C35.1034 40.8633 34.9263 40.7461 34.7291 40.668ZM23.1165 26.0195H20.1379L19.7112 27.3789H17.0304L20.2304 19.1289H23.1044L26.2923 27.3789H23.5431L23.1165 26.0195ZM22.561 24.2305L21.6312 21.2656L20.6974 24.2305H22.561ZM27.033 19.125H29.6694V27.375H27.033V19.125ZM25.0244 10.668C24.5897 10.9727 24.1872 11.3828 23.837 11.9141C23.8209 11.9414 23.7967 11.9648 23.7686 11.9805C23.6599 12.0469 23.515 12.0156 23.4465 11.9141C23.0964 11.3828 22.6938 10.9727 22.2591 10.668C21.7922 10.3398 21.2891 10.1328 20.7698 10.0313H20.7618C20.2546 9.92969 19.7353 9.92969 19.2362 10.0156C18.7089 10.1055 18.1977 10.293 17.7389 10.5508C17.284 10.8086 16.8735 11.1406 16.5313 11.5234C16.2013 11.8945 15.9356 12.3203 15.7625 12.7773C15.7343 12.8477 15.7102 12.9219 15.686 13C15.6659 13.0703 15.6418 13.1484 15.6257 13.2266C15.6055 13.3281 15.517 13.4023 15.4043 13.4062C14.8649 13.4844 14.3296 13.6758 13.8304 13.9609C13.3233 14.2539 12.8523 14.6523 12.4458 15.1289C12.0433 15.6055 11.7052 16.168 11.4636 16.793C11.2382 17.3789 11.1014 18.0234 11.0732 18.707C11.0692 18.7969 11.0692 18.8828 11.0692 18.9727C11.0692 19.0547 11.0732 19.1406 11.0732 19.2305C11.0772 19.3047 11.045 19.3828 10.9766 19.4297C10.6465 19.6602 10.3487 19.8984 10.083 20.1445C9.81333 20.3984 9.57585 20.6602 9.37057 20.9297C9.03648 21.3711 8.79094 21.832 8.62591 22.2969C8.45283 22.7813 8.3683 23.2773 8.36025 23.7656C8.35623 24.2344 8.42063 24.6992 8.55748 25.1484C8.69434 25.6055 8.90365 26.0508 9.17333 26.4648C9.32629 26.7031 9.49937 26.9375 9.68855 27.1562C9.88176 27.3789 10.0911 27.5898 10.3165 27.7891C10.3728 27.8398 10.405 27.9219 10.3889 28C10.3245 28.2969 10.2923 28.5898 10.2803 28.8789C10.2722 29.1758 10.2883 29.4687 10.3286 29.7539C10.405 30.2773 10.562 30.7773 10.7834 31.2383C11.0169 31.7305 11.3228 32.1797 11.677 32.5742C12.0191 32.9609 12.4096 33.2969 12.8282 33.5742C13.2508 33.8555 13.6976 34.0742 14.1565 34.2266C14.3618 34.293 14.5711 34.3477 14.7844 34.3867C14.9857 34.4258 15.1869 34.4492 15.3842 34.457C15.4928 34.4531 15.5935 34.5273 15.6176 34.6367C15.7223 35.1016 15.9155 35.5391 16.1811 35.9336C16.4589 36.3477 16.8091 36.7148 17.2116 37.0195C17.7187 37.4023 18.3145 37.6914 18.9424 37.8437C19.5341 37.9883 20.158 38.0156 20.7698 37.8906C21.3172 37.7812 21.8486 37.5547 22.3396 37.1953C22.7904 36.8633 23.2091 36.418 23.5592 35.8398C23.5794 35.8047 23.6116 35.7773 23.6518 35.7578C23.7645 35.6992 23.9054 35.7422 23.9658 35.8516C24.2556 36.375 24.6098 36.793 25.0043 37.1094C25.4309 37.4492 25.9019 37.6797 26.397 37.8125C27.0289 37.9805 27.6891 37.9805 28.3291 37.8516C29.0133 37.7148 29.6735 37.4258 30.241 37.0273C30.6878 36.7188 31.0823 36.3398 31.3962 35.9102C31.6941 35.5078 31.9155 35.0586 32.0443 34.5859C32.0604 34.4961 32.1328 34.418 32.2335 34.4023C32.8252 34.3008 33.4088 34.0625 33.9442 33.707C34.4795 33.3516 34.9665 32.8828 35.365 32.3242C35.7313 31.8086 36.0252 31.2148 36.2143 30.5664C36.3914 29.9609 36.476 29.3047 36.4478 28.6133C36.4397 28.5352 36.476 28.457 36.5484 28.4102C36.8946 28.1797 37.2005 27.9375 37.4742 27.6914C37.7519 27.4336 37.9975 27.168 38.2068 26.8906C38.5288 26.4687 38.7663 26.0312 38.9313 25.582C39.1004 25.1172 39.1889 24.6445 39.205 24.1719C39.2171 23.7148 39.1608 23.2617 39.04 22.8164C38.9192 22.3672 38.7301 21.9336 38.4845 21.5234L38.4765 21.5156C38.3155 21.2461 38.1263 20.9883 37.917 20.7383C37.7077 20.4883 37.4702 20.2539 37.2166 20.0312C37.1562 19.9805 37.124 19.8984 37.1401 19.8164C37.1965 19.5469 37.2327 19.2773 37.2448 19.0117C37.2569 18.7422 37.2488 18.4766 37.2206 18.2148C37.1603 17.6719 37.0113 17.1562 36.794 16.6758C36.5645 16.168 36.2586 15.6992 35.9004 15.2891C35.5542 14.8906 35.1557 14.543 34.7291 14.2539C34.3024 13.9648 33.8475 13.7383 33.3847 13.5859L33.3726 13.582C33.127 13.5 32.8775 13.4414 32.6319 13.4023H32.6239C32.3824 13.3633 32.1409 13.3477 31.9034 13.3516C31.7947 13.3594 31.6901 13.2891 31.6619 13.1797C31.6216 13.0195 31.5693 12.8633 31.5089 12.7109C31.4445 12.5547 31.3721 12.4023 31.2875 12.25C31.0702 11.8594 30.7844 11.5 30.4503 11.1914C30.1082 10.875 29.7177 10.6055 29.2991 10.3984C28.8684 10.1875 28.3975 10.0391 27.9145 9.97266C27.4556 9.91016 26.9847 9.91797 26.5218 10.0117C26.0025 10.1328 25.4913 10.3398 25.0244 10.668ZM31.6055 15.0664C31.6337 14.9805 31.7142 14.9141 31.8148 14.9062C31.9839 14.8945 32.157 14.9023 32.3301 14.9297C32.5072 14.957 32.6843 15 32.8614 15.0586C33.1955 15.168 33.5296 15.3359 33.8395 15.5469C34.1454 15.7539 34.4352 16.0078 34.6848 16.2969L34.6888 16.3047C34.9504 16.6055 35.1718 16.9414 35.3369 17.3086C35.4938 17.6523 35.5985 18.0195 35.6428 18.4062C35.6709 18.6641 35.6709 18.9336 35.6387 19.207C35.6106 19.4609 35.5502 19.7227 35.4576 19.9844L35.4536 20C35.3972 20.1641 35.4013 20.3359 35.4536 20.4883C35.5099 20.6445 35.6146 20.7852 35.7635 20.8789L35.7756 20.8867C36.0574 21.0898 36.3069 21.3125 36.5243 21.5469C36.7497 21.7852 36.9429 22.043 37.1039 22.3086C37.281 22.6016 37.4179 22.9062 37.5024 23.2187C37.5909 23.5273 37.6312 23.8398 37.6191 24.1484C37.6111 24.4687 37.5467 24.7891 37.4299 25.1055C37.3172 25.4062 37.1522 25.7031 36.9348 25.9922L36.9308 25.9961C36.7336 26.2578 36.484 26.5156 36.1902 26.7617C35.9084 26.9961 35.5824 27.2188 35.208 27.4336L35.196 27.4414C35.047 27.5234 34.9384 27.6484 34.874 27.793C34.8096 27.9375 34.7894 28.0977 34.8216 28.2539L34.8257 28.2852C34.9021 28.8828 34.8659 29.4531 34.7411 29.9727C34.6043 30.5391 34.3668 31.0469 34.0569 31.4805C33.8194 31.8125 33.5457 32.0977 33.2518 32.3242C32.9499 32.5586 32.6239 32.7305 32.2898 32.8359H32.2858C32.165 32.8711 32.0322 32.8047 31.996 32.6875C31.5411 31.2461 30.7562 30.7812 29.4279 30.1172L29.3997 30.1016C29.2146 30.0156 29.0133 30.0078 28.8322 30.0625C28.6511 30.1172 28.4941 30.2383 28.4015 30.4141L28.3894 30.4375C28.3009 30.6172 28.2928 30.8125 28.3492 30.9883C28.4096 31.1641 28.5384 31.3203 28.7235 31.4141C29.8345 31.9648 30.6556 32.3828 30.6435 33.7344C30.6395 34.1367 30.5107 34.5273 30.2933 34.8789C30.0639 35.25 29.7338 35.582 29.3514 35.8516C28.961 36.125 28.5223 36.3242 28.0714 36.4219C27.6408 36.5195 27.198 36.5234 26.7834 36.4141C26.083 36.2266 25.6282 35.7734 25.3223 35.2227C25.0325 34.6992 24.8714 34.0898 24.7547 33.5352C24.7467 33.5156 24.7467 33.4922 24.7467 33.4727C24.7467 33.1914 24.5213 33.0078 24.2274 32.9258C24.0986 32.8867 23.9577 32.8711 23.8209 32.8711C23.68 32.8711 23.5431 32.8906 23.4143 32.9258C23.1245 33.0117 22.8991 33.1953 22.8991 33.4727C22.8991 33.4922 22.8951 33.5078 22.8911 33.5273C22.6657 34.3945 22.3396 35.0469 21.9572 35.5156C21.5104 36.0664 20.9872 36.3672 20.4478 36.4766C20.0533 36.5547 19.6468 36.5352 19.2604 36.4375C18.8538 36.332 18.4674 36.1406 18.1293 35.8906C17.7952 35.6367 17.5175 35.3281 17.3243 34.9805C17.1391 34.6484 17.0304 34.2813 17.0304 33.9063C17.0304 32.4844 17.916 32.0078 19.0873 31.4258C19.2725 31.332 19.4013 31.1758 19.4616 31C19.522 30.8203 19.5099 30.6211 19.4174 30.4375C19.3208 30.2578 19.1597 30.1328 18.9786 30.0742C18.7975 30.0195 18.5962 30.0273 18.4111 30.1133L18.399 30.1172C17.0184 30.8008 16.1932 31.3008 15.6981 32.7891C15.6699 32.8867 15.5733 32.9609 15.4647 32.957C15.3278 32.9531 15.1909 32.9375 15.0501 32.9102C14.9132 32.8828 14.7764 32.8477 14.6475 32.8008C14.3215 32.6914 13.9955 32.5313 13.6896 32.3281C13.3877 32.125 13.1059 31.8828 12.8564 31.6016C12.5987 31.3125 12.3774 30.9883 12.2083 30.6328C12.0473 30.3008 11.9346 29.9453 11.8782 29.5742V29.5664C11.838 29.293 11.8299 29.0078 11.8621 28.7148C11.8903 28.4414 11.9507 28.1563 12.0513 27.875L12.0553 27.8633C12.1117 27.7031 12.1077 27.5352 12.0594 27.3867L12.0553 27.3789C12.003 27.2227 11.8984 27.0859 11.7535 26.9883L11.7454 26.9805C11.4878 26.793 11.2543 26.5937 11.0491 26.375C10.8397 26.1562 10.6546 25.9219 10.5016 25.6797C10.3165 25.3867 10.1716 25.0742 10.075 24.7539C9.98239 24.4414 9.93409 24.1211 9.93811 23.793C9.94214 23.4609 10.0025 23.1211 10.1233 22.7891C10.24 22.4727 10.4091 22.1563 10.6425 21.8477C10.8397 21.5859 11.0813 21.3281 11.3711 21.082C11.6488 20.8438 11.9628 20.6172 12.325 20.4023C12.4579 20.3242 12.5545 20.2148 12.6189 20.0898L12.6229 20.0781C12.6873 19.9492 12.7114 19.8047 12.6913 19.6602C12.6873 19.6445 12.6873 19.6289 12.6873 19.6133V19.6055C12.6672 19.4687 12.6551 19.332 12.647 19.1992C12.639 19.0547 12.639 18.9102 12.643 18.7695C12.6631 18.2578 12.7638 17.7773 12.9288 17.3438C13.1059 16.8789 13.3555 16.4609 13.6533 16.1055C13.8989 15.8125 14.1806 15.5664 14.4745 15.375C14.7683 15.1836 15.0782 15.0469 15.3962 14.9687C15.517 14.9336 15.6498 15 15.686 15.1172C15.9356 15.8828 16.2496 16.3633 16.8493 16.9062L16.8735 16.9258C17.0224 17.0586 17.2156 17.1211 17.4048 17.1133C17.594 17.1055 17.7791 17.0312 17.916 16.8867L17.9281 16.8711C18.0649 16.7266 18.1293 16.5391 18.1213 16.3555C18.1132 16.1719 18.0327 15.9883 17.8797 15.8477C17.3967 15.4141 17.288 15.1445 17.1431 14.707C16.9741 14.2031 17.0023 13.7109 17.1673 13.2734C17.28 12.9727 17.4571 12.6914 17.6825 12.4453C17.9039 12.1992 18.1736 11.9805 18.4714 11.8125L18.4835 11.8047C18.7894 11.6328 19.1195 11.5078 19.4616 11.4453C19.7877 11.3867 20.1218 11.3828 20.4478 11.4492C20.9067 11.543 21.3575 11.7773 21.756 12.1836C22.1062 12.5391 22.4161 13.0313 22.6616 13.6797L22.6657 13.6875C22.7502 13.9414 23.0239 14.0898 23.3459 14.1484C23.4908 14.1758 23.6438 14.1836 23.7927 14.1758H23.7967C23.9497 14.168 24.0946 14.1406 24.2314 14.0977C24.473 14.0195 24.6621 13.8945 24.7064 13.7344V13.6445C24.7064 13.1914 24.9842 12.7109 25.3665 12.3164C25.7852 11.8867 26.3447 11.5469 26.8156 11.4531C27.1135 11.3945 27.4153 11.3906 27.7092 11.4336C28.0151 11.4805 28.313 11.5742 28.5947 11.7109L28.6189 11.7188C28.9047 11.8594 29.1663 12.0391 29.3957 12.25C29.6211 12.4609 29.8143 12.6992 29.9592 12.9609C30.1887 13.3711 30.2933 13.8398 30.2209 14.3359C30.1565 14.7695 30.1404 15.043 29.766 15.4766L29.762 15.4805C29.6292 15.6328 29.5728 15.8242 29.5889 16.0117C29.605 16.1914 29.6896 16.3672 29.8385 16.4922L29.8626 16.5117C30.0196 16.6367 30.2128 16.6875 30.402 16.6719C30.5872 16.6563 30.7683 16.5742 30.8971 16.4297L30.9172 16.4023C31.3036 15.957 31.4284 15.6289 31.6055 15.0664ZM40.4448 34.1836C40.3683 34 40.324 33.8008 40.324 33.5898C40.324 33.3789 40.3683 33.1797 40.4448 32.9961C40.5253 32.8125 40.638 32.6445 40.7829 32.5078L40.7909 32.4961C40.8714 32.418 40.964 32.3438 41.0647 32.2852C41.117 32.2539 41.1733 32.2227 41.2337 32.1953V29.7305H38.1102C38.1142 29.5703 38.1142 29.4102 38.1062 29.2461C38.0981 29.1563 38.1384 29.0664 38.2189 29.0156C38.5409 28.8008 38.8347 28.5781 39.1004 28.3477H41.9421C42.1394 28.3477 42.3165 28.4258 42.4453 28.5508C42.5741 28.6758 42.6546 28.8477 42.6546 29.0391V32.2188C42.7029 32.2422 42.7512 32.2695 42.7995 32.3008C42.884 32.3555 42.9645 32.418 43.037 32.4883L43.0491 32.5C43.194 32.6406 43.3147 32.8125 43.3952 33.0039C43.4717 33.1875 43.516 33.3867 43.516 33.5977C43.516 33.8008 43.4757 33.9961 43.3992 34.1797L43.3952 34.1914C43.3147 34.3828 43.194 34.5508 43.0491 34.6953C42.9041 34.8359 42.727 34.9531 42.5298 35.0313C42.3406 35.1055 42.1353 35.1484 41.918 35.1484C41.7047 35.1484 41.4994 35.1055 41.3062 35.0313C41.1089 34.9531 40.9318 34.8359 40.7869 34.6953C40.646 34.5469 40.5253 34.375 40.4448 34.1836ZM44.9691 26.2734H40.7225C40.795 26.1211 40.8594 25.9688 40.9157 25.8125C41.0284 25.5078 41.1089 25.1992 41.1572 24.8906H44.9691C44.9972 24.8398 45.0254 24.7891 45.0576 24.7383C45.118 24.6445 45.1904 24.5586 45.2669 24.4844C45.4158 24.3398 45.5889 24.2266 45.7862 24.1484C45.9753 24.0742 46.1806 24.0313 46.398 24.0313C46.6073 24.0313 46.8086 24.0703 46.9977 24.1445L47.0098 24.1484C47.207 24.2266 47.3801 24.3438 47.5291 24.4844C47.674 24.625 47.7947 24.7969 47.8752 24.9883C47.9517 25.1719 47.996 25.3711 47.996 25.582C47.996 25.7891 47.9517 25.9883 47.8752 26.1758C47.7947 26.3672 47.674 26.5391 47.5291 26.6797C47.3842 26.8203 47.207 26.9375 47.0098 27.0156C46.8206 27.0898 46.6153 27.1328 46.398 27.1328C46.1887 27.1328 45.9874 27.0937 45.7982 27.0195L45.7862 27.0156C45.5889 26.9375 45.4158 26.8203 45.2669 26.6797C45.1904 26.6055 45.122 26.5234 45.0616 26.4336L45.0536 26.4219C45.0254 26.375 44.9972 26.3242 44.9691 26.2734ZM46.3215 22.4922H40.9801C40.8433 22.0547 40.6501 21.6289 40.4086 21.2227L40.4005 21.2109C40.3804 21.1758 40.3603 21.1445 40.3401 21.1094H45.6131V16.5977C45.5728 16.5742 45.5326 16.5508 45.4923 16.5234C45.4118 16.4687 45.3394 16.4102 45.2709 16.3438C45.126 16.2031 45.0053 16.0312 44.9248 15.8398C44.8483 15.6562 44.804 15.457 44.804 15.2461C44.804 15.0391 44.8483 14.8359 44.9248 14.6523C45.0053 14.4609 45.126 14.293 45.2709 14.1484C45.4158 14.0078 45.593 13.8906 45.7902 13.8125C45.9794 13.7383 46.1847 13.6953 46.402 13.6953C46.6153 13.6953 46.8206 13.7383 47.0138 13.8125C47.2111 13.8906 47.3882 14.0078 47.5331 14.1484C47.678 14.2891 47.7987 14.4609 47.8792 14.6523C47.9557 14.8359 48 15.0352 48 15.2461C48 15.4492 47.9597 15.6445 47.8833 15.8281L47.8792 15.8398C47.7987 16.0312 47.678 16.1992 47.5331 16.3438C47.4445 16.4297 47.3399 16.5078 47.2312 16.5742C47.1708 16.6094 47.1024 16.6445 47.038 16.6719V21.7969C47.038 21.9883 46.9575 22.1602 46.8287 22.2852C46.6958 22.4141 46.5187 22.4922 46.3215 22.4922ZM40.7386 19.1563H38.9192C38.9675 18.8984 38.9957 18.6406 39.0078 18.3828C39.0158 18.1758 39.0158 17.9727 39.0038 17.7734H40.0262V15.7344C39.9698 15.707 39.9175 15.6797 39.8652 15.6445C39.7686 15.5859 39.68 15.5156 39.5955 15.4336C39.4506 15.293 39.3298 15.1211 39.2493 14.9297C39.1728 14.7461 39.1286 14.5469 39.1286 14.3398C39.1286 14.1328 39.1728 13.9336 39.2493 13.7461C39.3298 13.5625 39.4425 13.3945 39.5834 13.2539L39.5955 13.2422C39.7404 13.1016 39.9175 12.9844 40.1147 12.9063C40.3039 12.832 40.5092 12.7891 40.7265 12.7891C40.9439 12.7891 41.1492 12.832 41.3384 12.9063C41.5275 12.9844 41.7006 13.0938 41.8455 13.2344L41.8576 13.2422C42.0025 13.3828 42.1192 13.5469 42.1997 13.7344L42.2038 13.7461C42.2802 13.9297 42.3245 14.1289 42.3245 14.3398C42.3245 14.5469 42.2802 14.75 42.2038 14.9336C42.1233 15.1172 42.0106 15.2852 41.8697 15.4258L41.8576 15.4375C41.7811 15.5117 41.6966 15.5781 41.6 15.6406C41.5517 15.6719 41.5034 15.6992 41.4511 15.7227V18.4648C41.4511 18.6563 41.3706 18.8281 41.2418 18.9531C41.113 19.0781 40.9318 19.1563 40.7386 19.1563ZM12.5303 7.33203C12.7195 7.40625 12.9248 7.44922 13.1421 7.44922C13.3595 7.44922 13.5648 7.40625 13.754 7.33203C13.9431 7.25391 14.1162 7.14453 14.2571 7.00391L14.2692 6.99609C14.3497 6.91797 14.4262 6.82812 14.4865 6.73047C14.5187 6.67969 14.5509 6.625 14.5791 6.56641H17.119V8.69531C17.5658 8.46484 18.0488 8.29687 18.5439 8.19922V5.875C18.5439 5.68359 18.4634 5.51172 18.3346 5.38672C18.2058 5.26172 18.0287 5.18359 17.8314 5.18359H14.555C14.5308 5.13672 14.5026 5.08984 14.4704 5.04297C14.4141 4.96094 14.3497 4.88281 14.2772 4.8125L14.2652 4.80078C14.1203 4.66016 13.9431 4.54297 13.7459 4.46484C13.5567 4.39063 13.3514 4.34766 13.1341 4.34766C12.9248 4.34766 12.7195 4.38672 12.5343 4.46094L12.5223 4.46484C12.325 4.54297 12.1519 4.66016 12.003 4.80078C11.8581 4.94141 11.7374 5.11328 11.6569 5.30469C11.5804 5.48828 11.5361 5.6875 11.5361 5.89844C11.5361 6.10547 11.5804 6.30469 11.6569 6.49219C11.7374 6.68359 11.8581 6.85547 12.003 6.99609C12.16 7.13672 12.3331 7.25391 12.5303 7.33203ZM20.6853 2.94141V8.27734C21.1603 8.41016 21.6231 8.62109 22.0579 8.92578L22.1062 8.96094C22.1062 8.94922 22.1102 8.9375 22.1102 8.92578V2.94141C22.1625 2.91406 22.2148 2.88672 22.2672 2.85547C22.3638 2.79687 22.4523 2.72656 22.5288 2.65234C22.6737 2.50781 22.7945 2.33984 22.875 2.14844C22.9514 1.96484 22.9957 1.76563 22.9957 1.55469C22.9957 1.35156 22.9555 1.15625 22.879 0.972656L22.875 0.960938C22.7945 0.769531 22.6737 0.601562 22.5288 0.457031C22.3839 0.316406 22.2068 0.199219 22.0096 0.121094C21.8204 0.046875 21.6151 0.00390625 21.3977 0.00390625C21.1844 0.00390625 20.9791 0.046875 20.7859 0.121094C20.5887 0.199219 20.4116 0.316406 20.2667 0.457031C20.1218 0.597656 20.001 0.769531 19.9205 0.960938C19.844 1.14453 19.7997 1.34375 19.7997 1.55469C19.7997 1.75781 19.84 1.95312 19.9165 2.13672L19.9205 2.14844C20.001 2.33984 20.1218 2.50781 20.2667 2.65234C20.3431 2.72656 20.4277 2.79297 20.5203 2.85156L20.5283 2.85547C20.5806 2.88672 20.6289 2.91406 20.6853 2.94141ZM24.5776 1.62891V9.43359C24.7708 9.24219 24.9761 9.07422 25.1854 8.92578C25.447 8.74219 25.7208 8.58984 26.0025 8.47266V2.31641H30.6516C30.6757 2.35547 30.6999 2.39453 30.728 2.43359C30.7844 2.51172 30.8448 2.58203 30.9132 2.64844C31.0581 2.78906 31.2352 2.90625 31.4325 2.98437C31.6216 3.05859 31.8269 3.10156 32.0443 3.10156C32.2576 3.10156 32.4669 3.05859 32.6561 2.98437C32.8533 2.90625 33.0304 2.78906 33.1753 2.64844C33.3202 2.50781 33.441 2.33594 33.5215 2.14453C33.598 1.96094 33.6423 1.76172 33.6423 1.55078C33.6423 1.34375 33.598 1.14453 33.5215 0.957031C33.441 0.765625 33.3202 0.59375 33.1753 0.453125C33.0224 0.3125 32.8453 0.195313 32.648 0.117188C32.4589 0.0429688 32.2536 0 32.0402 0C31.8309 0 31.6297 0.0390625 31.4405 0.113281L31.4284 0.117188C31.2312 0.195313 31.0581 0.3125 30.9092 0.453125C30.8206 0.539062 30.7401 0.640625 30.6717 0.746094C30.6355 0.804687 30.5992 0.871094 30.5711 0.933594H25.2901C25.0928 0.933594 24.9157 1.01172 24.7869 1.13672C24.6581 1.26563 24.5776 1.4375 24.5776 1.62891ZM28.0151 7.04688V8.11719C28.16 8.125 28.3089 8.13672 28.4538 8.16016C28.7919 8.20703 29.122 8.28906 29.44 8.40234V7.74219H31.5411C31.5693 7.79687 31.5975 7.84766 31.6337 7.89844C31.6941 7.99219 31.7665 8.07812 31.8511 8.16016C31.996 8.30078 32.1731 8.41797 32.3703 8.49609C32.5595 8.57031 32.7648 8.61328 32.9781 8.61328C33.1914 8.61328 33.3967 8.57031 33.5899 8.49609C33.7791 8.41797 33.9522 8.30859 34.0971 8.17188L34.1092 8.16016C34.2541 8.01953 34.3748 7.84766 34.4553 7.65625C34.5318 7.47266 34.5761 7.27344 34.5761 7.0625C34.5761 6.85156 34.5318 6.65234 34.4553 6.46875C34.3748 6.28516 34.2621 6.11719 34.1172 5.97656L34.1092 5.96484C33.9643 5.82422 33.7952 5.71094 33.602 5.63281L33.5899 5.62891C33.4008 5.55469 33.1955 5.51172 32.9781 5.51172C32.7648 5.51172 32.5555 5.55469 32.3663 5.62891C32.1771 5.70703 32.004 5.81641 31.8591 5.95312L31.847 5.96484C31.7706 6.03906 31.7021 6.12109 31.6377 6.21484C31.6055 6.26172 31.5774 6.30859 31.5532 6.35938H28.7275C28.5303 6.35938 28.3532 6.4375 28.2244 6.5625C28.0956 6.68359 28.0151 6.85547 28.0151 7.04688ZM7.55522 13.75C7.6317 13.9336 7.67597 14.1328 7.67597 14.3438C7.67597 14.5547 7.6317 14.7539 7.55522 14.9375C7.47472 15.1211 7.36201 15.2891 7.21711 15.4258L7.20906 15.4375C7.12855 15.5156 7.03597 15.5898 6.93535 15.6484C6.88302 15.6797 6.82667 15.7109 6.76629 15.7383V18.2031H9.40277V18.3242C9.40277 18.418 9.40679 18.5156 9.41082 18.6172C9.41887 18.7031 9.37862 18.7891 9.30214 18.8438C8.95597 19.082 8.64604 19.332 8.36428 19.5859H6.06189C5.86465 19.5859 5.68755 19.5078 5.55874 19.3828C5.42994 19.2578 5.34943 19.0859 5.34943 18.8945V15.7148C5.30113 15.6914 5.25283 15.6641 5.20453 15.6328C5.12 15.5781 5.0395 15.5156 4.96704 15.4453L4.95497 15.4336C4.81006 15.293 4.68931 15.1211 4.6088 14.9297C4.53233 14.7461 4.48805 14.5469 4.48805 14.3359C4.48805 14.1328 4.5283 13.9375 4.60478 13.7539L4.6088 13.7422C4.68931 13.5508 4.81006 13.3828 4.95497 13.2383C5.09987 13.0977 5.27698 12.9805 5.47421 12.9023C5.6634 12.8281 5.86868 12.7852 6.08604 12.7852C6.29937 12.7852 6.50465 12.8281 6.69786 12.9023C6.89509 12.9805 7.0722 13.0977 7.21711 13.2383C7.35396 13.3867 7.47472 13.5586 7.55522 13.75ZM3.03094 21.6602H6.81459C6.75019 21.8008 6.69384 21.9453 6.64151 22.0859C6.5288 22.4023 6.4483 22.7187 6.4 23.0391H3.03094C3.00277 23.0898 2.97459 23.1406 2.94239 23.1914C2.88201 23.2852 2.80956 23.3711 2.73308 23.4453C2.58415 23.5898 2.41107 23.7031 2.21384 23.7813C2.02465 23.8555 1.81937 23.8984 1.60201 23.8984C1.3927 23.8984 1.19145 23.8594 1.00226 23.7852L0.990189 23.7813C0.792956 23.7031 0.619874 23.5859 0.470943 23.4453C0.326038 23.3047 0.205283 23.1328 0.12478 22.9414C0.0483019 22.7578 0.00402516 22.5586 0.00402516 22.3477C0.00402516 22.1406 0.0483019 21.9414 0.12478 21.7539C0.205283 21.5625 0.326038 21.3906 0.470943 21.25C0.615849 21.1094 0.792956 20.9922 0.990189 20.9141C1.17937 20.8398 1.38465 20.7969 1.60201 20.7969C1.81132 20.7969 2.01258 20.8359 2.20176 20.9102L2.21384 20.9141C2.41107 20.9922 2.58415 21.1094 2.73308 21.25C2.80956 21.3242 2.87799 21.4062 2.93836 21.4961L2.94642 21.5078C2.97459 21.5586 3.00277 21.6094 3.03094 21.6602ZM1.67849 25.4414H6.60126C6.75421 25.9141 6.9756 26.3711 7.25736 26.8047V26.8086L7.26541 26.8242H2.38692V31.3359C2.42717 31.3594 2.46742 31.3828 2.50767 31.4102C2.58818 31.4648 2.66063 31.5234 2.72906 31.5898C2.87396 31.7305 2.99472 31.9023 3.07522 32.0938C3.1517 32.2773 3.19597 32.4766 3.19597 32.6875C3.19597 32.8945 3.1517 33.0977 3.07522 33.2812C2.99472 33.4727 2.87396 33.6406 2.72906 33.7852C2.58415 33.9258 2.40704 34.043 2.20981 34.1211C2.02063 34.1953 1.81535 34.2383 1.59799 34.2383C1.38465 34.2383 1.17937 34.1953 0.986164 34.1211C0.788931 34.043 0.611824 33.9258 0.466918 33.7852C0.322013 33.6328 0.201258 33.4609 0.120755 33.2734C0.0442767 33.0898 0 32.8906 0 32.6797C0 32.4766 0.0402516 32.2812 0.11673 32.0977L0.120755 32.0859C0.201258 31.8945 0.322013 31.7266 0.466918 31.582C0.555472 31.4961 0.660126 31.418 0.768805 31.3516C0.829182 31.3164 0.89761 31.2813 0.962013 31.2539V26.1289C0.962013 25.9375 1.04252 25.7656 1.17132 25.6406C1.30415 25.5195 1.48126 25.4414 1.67849 25.4414ZM7.26138 28.7773H8.58969C8.54541 29.0352 8.52126 29.2891 8.51321 29.5391C8.50516 29.75 8.50918 29.957 8.52528 30.1602H7.97384V32.1992C8.03019 32.2266 8.08252 32.2539 8.13484 32.2891C8.23145 32.3477 8.32 32.418 8.40453 32.5C8.54943 32.6406 8.67019 32.8125 8.75069 33.0039C8.82717 33.1875 8.87145 33.3867 8.87145 33.5977C8.87145 33.8086 8.82717 34.0039 8.75069 34.1914C8.67019 34.375 8.55748 34.543 8.4166 34.6836L8.40453 34.6953C8.25962 34.8359 8.08252 34.9531 7.88528 35.0313C7.6961 35.1055 7.49082 35.1484 7.27346 35.1484C7.0561 35.1484 6.85082 35.1055 6.66163 35.0313C6.47245 34.9531 6.29937 34.8437 6.15447 34.7031L6.14239 34.6953C5.99748 34.5547 5.88075 34.3906 5.80025 34.2031L5.79623 34.1914C5.71975 34.0078 5.67547 33.8086 5.67547 33.5977C5.67547 33.3906 5.71975 33.1875 5.79623 33.0039C5.87673 32.8203 5.98943 32.6523 6.13031 32.5117L6.14239 32.5C6.21887 32.4258 6.3034 32.3594 6.4 32.2969C6.4483 32.2656 6.4966 32.2383 6.54893 32.2148V29.4727C6.54893 29.2812 6.62943 29.1094 6.75824 28.9844C6.88704 28.8516 7.06415 28.7773 7.26138 28.7773ZM26.5781 45.0586V39.5938C26.075 39.4414 25.6 39.1953 25.1653 38.8477L25.1572 38.8398V45.0625C25.1049 45.0898 25.0526 45.1172 25.0003 45.1484C24.9036 45.207 24.8151 45.2773 24.7386 45.3516C24.5937 45.4961 24.473 45.6641 24.3925 45.8555C24.316 46.0391 24.2717 46.2383 24.2717 46.4492C24.2717 46.6523 24.3119 46.8477 24.3884 47.0313L24.3925 47.043C24.473 47.2344 24.5937 47.4023 24.7386 47.5469C24.8835 47.6875 25.0606 47.8047 25.2579 47.8828C25.447 47.957 25.6523 48 25.8697 48C26.083 48 26.2883 47.957 26.4815 47.8828C26.6787 47.8047 26.8558 47.6875 27.0008 47.5469C27.1457 47.4063 27.2664 47.2344 27.3469 47.043C27.4234 46.8594 27.4677 46.6602 27.4677 46.4492C27.4677 46.2461 27.4274 46.0508 27.3509 45.8672L27.3469 45.8555C27.2664 45.6641 27.1457 45.4961 27.0008 45.3516C26.9243 45.2773 26.8397 45.2109 26.7472 45.1523L26.7351 45.1445C26.6828 45.1133 26.6304 45.0859 26.5781 45.0586ZM22.6818 46.3711V38.4961C22.5127 38.6641 22.3356 38.8125 22.1504 38.9492C21.8647 39.1602 21.5668 39.3281 21.2569 39.4609V45.6875H16.6078C16.5836 45.6484 16.5595 45.6094 16.5313 45.5703C16.475 45.4922 16.4146 45.4219 16.3462 45.3555C16.2013 45.2148 16.0242 45.0977 15.8269 45.0195C15.6377 44.9453 15.4325 44.9023 15.2151 44.9023C15.0018 44.9023 14.7925 44.9453 14.6033 45.0195C14.406 45.0977 14.233 45.2148 14.084 45.3555C13.9391 45.4961 13.8184 45.668 13.7379 45.8594C13.6614 46.043 13.6171 46.2422 13.6171 46.4531C13.6171 46.6602 13.6614 46.8594 13.7379 47.0469C13.8184 47.2383 13.9391 47.4102 14.084 47.5508C14.2289 47.6914 14.406 47.8086 14.6033 47.8867C14.7925 47.9609 14.9977 48.0039 15.2151 48.0039C15.4244 48.0039 15.6257 47.9648 15.8148 47.8906L15.8269 47.8867C16.0242 47.8086 16.1972 47.6914 16.3462 47.5508C16.4347 47.4648 16.5152 47.3633 16.5836 47.2578C16.6199 47.1992 16.6561 47.1328 16.6843 47.0703H21.9653C22.1625 47.0703 22.3396 46.9922 22.4684 46.8672C22.6013 46.7344 22.6818 46.5625 22.6818 46.3711ZM19.2443 40.9531V39.8164C18.9303 39.8008 18.6164 39.7539 18.3104 39.6797C18.1454 39.6406 17.9804 39.5898 17.8194 39.5352V40.2656H15.7182C15.6901 40.2109 15.6619 40.1602 15.6257 40.1094C15.5653 40.0156 15.4928 39.9297 15.4083 39.8477C15.2634 39.707 15.0863 39.5898 14.8891 39.5117C14.6999 39.4375 14.4946 39.3945 14.2813 39.3945C14.0679 39.3945 13.8626 39.4375 13.6694 39.5117C13.4803 39.5898 13.3072 39.6992 13.1623 39.8359L13.1502 39.8438C13.0053 39.9844 12.8845 40.1563 12.804 40.3477C12.7275 40.5313 12.6833 40.7305 12.6833 40.9414C12.6833 41.1523 12.7275 41.3516 12.804 41.5352C12.8845 41.7188 12.9972 41.8867 13.1421 42.0273L13.1502 42.0391C13.2951 42.1797 13.4642 42.293 13.6574 42.3711L13.6694 42.375C13.8586 42.4492 14.0639 42.4922 14.2813 42.4922C14.4946 42.4922 14.6999 42.4492 14.8931 42.375C15.0823 42.2969 15.2553 42.1875 15.4003 42.0508L15.4123 42.0391C15.4888 41.9648 15.5572 41.8828 15.6216 41.7891C15.6538 41.7422 15.682 41.6953 15.7062 41.6445H18.5318C18.7291 41.6445 18.9062 41.5664 19.035 41.4414C19.1638 41.3164 19.2443 41.1445 19.2443 40.9531Z" fill="#C9C9C9"/>
</g>
<defs>
<clipPath id="clip0_249_43">
<rect width="48" height="48" fill="white"/>
</clipPath>
</defs>
</svg>
